<?xml version="1.0" encoding="UTF-8" standalone="no"?>
<svg width="1920px" height="3652px" viewBox="0 0 1920 3652" version="1.1" xmlns="http://www.w3.org/2000/svg" xmlns:xlink="http://www.w3.org/1999/xlink">
    <!-- Generator: Sketch 50.2 (55047) - http://www.bohemiancoding.com/sketch -->
    <title>bg</title>
    <desc>Created with Sketch.</desc>
    <defs>
        <linearGradient x1="69.4222877%" y1="74.3816606%" x2="26.4409878%" y2="100.337067%" id="linearGradient-1">
            <stop stop-color="#FFFFFF" offset="0%"></stop>
            <stop stop-color="#F5F5F5" offset="100%"></stop>
        </linearGradient>
        <linearGradient x1="48.3378092%" y1="36.3449835%" x2="15.3207334%" y2="93.3901078%" id="linearGradient-2">
            <stop stop-color="#FFFFFF" offset="0%"></stop>
            <stop stop-color="#F5F5F5" offset="100%"></stop>
        </linearGradient>
    </defs>
    <g id="POS_FE" stroke="none" stroke-width="1" fill="none" fill-rule="evenodd">
        <g id="6---Integration" transform="translate(0.000000, -177.000000)">
            <g id="bg" transform="translate(0.000000, 177.000000)">
                <path d="M0,3224.52559 L0,1401.75254 C23.9669974,1389.30844 49.4530719,1379.33601 76.1307025,1372.1633 L735.200048,1195 L1283.17206,1195 C1298.37446,1206.2069 1312.84315,1218.63429 1326.42736,1232.24175 L1920,1826.76651 L1920,2812.30833 L1834.06593,3133.01864 C1799.01579,3263.82753 1696.96875,3366.04735 1566.36229,3401.163 L681.529619,3639.03287 C550.923158,3674.14852 411.61069,3636.81985 316.060001,3541.10558 L1.70530257e-13,3224.52559 Z" id="Combined-Shape" fill="url(#linearGradient-1)"></path>
                <path d="M1026.78665,1900 L972.988488,1900 C959.956483,1899.06877 946.899129,1897.45617 933.864315,1895.14478 L31.6264736,1735.18705 C20.9313875,1733.29055 10.3820385,1730.94678 1.8189894e-12,1728.17387 L1.8189894e-12,0 L1692.07264,0 L1920,626.225268 L1920,1001.21207 C1908.13144,1023.01458 1894.02539,1043.81343 1877.74372,1063.25532 L1289.40829,1765.73736 C1222.82358,1845.24596 1127.61309,1892.7918 1026.78662,1900 Z" id="Combined-Shape" fill="url(#linearGradient-2)"></path>
            </g>
        </g>
    </g>
</svg>