<?xml version="1.0" encoding="UTF-8" standalone="no"?>
<svg width="48px" height="22px" viewBox="0 0 48 22" version="1.1" xmlns="http://www.w3.org/2000/svg" xmlns:xlink="http://www.w3.org/1999/xlink">
    <!-- Generator: Sketch 50.2 (55047) - http://www.bohemiancoding.com/sketch -->
    <title>noun_Arrow</title>
    <desc>Created with Sketch.</desc>
    <defs></defs>
    <g id="POS_FE" stroke="none" stroke-width="1" fill="none" fill-rule="evenodd">
        <g id="4---Integration-Magento" transform="translate(-816.000000, -3182.000000)" fill="#7D7D7D" fill-rule="nonzero">
            <g id="intergration" transform="translate(375.000000, 2954.000000)">
                <g id="noun_Arrow" transform="translate(467.750000, 236.566987) rotate(-30.000000) translate(-467.750000, -236.566987) translate(446.750000, 219.066987)">
                    <path d="M31.4055,23.604 C30.693,23.7615 29.982,23.9565 29.2695,24.1515 C27.759,24.5655 26.331,24.957 24.9255,24.9825 C20.7855,25.0575 17.2545,24.8235 14.1765,24.27 C7.47,23.0625 3.828,19.6965 2.7165,13.6785 C2.2455,11.1255 2.286,8.4975 2.331,5.715 C2.3505,4.4625 2.37,3.2085 2.3415,1.965 C2.3265,1.344 1.8375,0.8955 1.1895,0.867 C0.5685,0.882 0.0765,1.398 0.0915,2.019 C0.12,3.234 0.1005,4.4565 0.081,5.6805 C0.0375,8.451 -0.0075,11.316 0.5055,14.088 C1.791,21.054 6.1335,25.1085 13.7805,26.4855 C16.6215,26.9955 19.803,27.246 23.466,27.246 C23.958,27.246 24.4575,27.2415 24.9675,27.2325 C26.6535,27.2025 28.287,26.7555 29.8665,26.322 C30.5415,26.1375 31.2165,25.9515 31.893,25.8015 C32.499,25.6665 32.883,25.0665 32.748,24.459 C32.61,23.853 32.01,23.469 31.4055,23.604 Z" id="Shape"></path>
                    <path d="M41.8215,20.7945 C41.4915,19.86 40.5735,19.368 39.7185,19.0095 L39.0435,18.7185 C38.505,18.4815 37.962,18.246 37.407,18.0585 C34.956,17.235 32.502,16.4265 30.048,15.6195 L27.5385,14.7915 C26.9475,14.601 26.3115,14.9175 26.118,15.5085 C25.923,16.098 26.2425,16.734 26.8335,16.929 L29.346,17.757 C31.7955,18.564 34.2465,19.3695 36.69,20.193 C37.1835,20.358 37.6605,20.571 38.1405,20.781 L38.8515,21.087 C39.5535,21.3795 39.6945,21.522 39.6945,21.522 C39.6945,21.552 39.684,21.7515 39.39,22.2975 C38.91,23.1885 38.3745,24.0495 37.842,24.912 C37.2435,25.8795 36.624,26.8785 36.0795,27.918 L35.949,28.17 C35.0805,29.829 34.395,31.1415 33.6945,33.222 C33.4965,33.8115 33.813,34.449 34.4025,34.647 C34.521,34.686 34.6425,34.7055 34.761,34.7055 C35.2305,34.7055 35.6685,34.41 35.8275,33.939 C36.471,32.0265 37.1205,30.783 37.9425,29.2125 L38.0745,28.9605 C38.58,27.9915 39.15,27.0705 39.7545,26.097 C40.3125,25.1955 40.869,24.2955 41.37,23.3655 C41.751,22.6545 42.1485,21.72 41.8215,20.7945 Z" id="Shape"></path>
                </g>
            </g>
        </g>
    </g>
</svg>